<?xml version="1.0" standalone="no"?><!DOCTYPE svg PUBLIC "-//W3C//DTD SVG 1.1//EN" "http://www.w3.org/Graphics/SVG/1.1/DTD/svg11.dtd"><svg t="1761103332112" class="icon" viewBox="0 0 1024 1024" version="1.1" xmlns="http://www.w3.org/2000/svg" p-id="4581" xmlns:xlink="http://www.w3.org/1999/xlink" width="200" height="200"><path d="M974.650602 653.879518H727.368996C686.093708 653.879518 652.508701 687.464525 652.508701 728.739813V976.021419c0 26.497885 21.480696 47.978581 47.978581 47.978581s47.978581-21.480696 47.978581-47.978581V749.83668h226.184739c26.497885 0 47.978581-21.480696 47.978581-47.978581s-21.480696-47.978581-47.978581-47.978581zM727.368996 370.120482H974.650602c26.497885 0 47.978581-21.480696 47.978581-47.978581s-21.480696-47.978581-47.978581-47.978581H748.465863V47.978581c0-26.497885-21.480696-47.978581-47.978581-47.978581s-47.978581 21.480696-47.978581 47.978581v247.281606c0 41.275288 33.585007 74.860295 74.860295 74.860295zM296.631004 653.879518H49.349398c-26.497885 0-47.978581 21.480696-47.978581 47.978581s21.480696 47.978581 47.978581 47.978581h226.184739v226.184739c0 26.497885 21.480696 47.978581 47.978581 47.978581s47.978581-21.480696 47.978581-47.978581V728.739813c0-41.275288-33.585007-74.860295-74.860295-74.860295zM323.512718 0c-26.497885 0-47.978581 21.480696-47.978581 47.978581v226.184739H49.349398c-26.497885 0-47.978581 21.480696-47.978581 47.978581s21.480696 47.978581 47.978581 47.978581h247.281606c41.275288 0 74.860295-33.585007 74.860295-74.860295V47.978581c0-26.497885-21.480696-47.978581-47.978581-47.978581z" p-id="4582"></path></svg>